<svg width="24" height="24" viewBox="0 0 24 24" fill="none" xmlns="http://www.w3.org/2000/svg">
<path fill-rule="evenodd" clip-rule="evenodd" d="M9.13358 17.8763C8.89917 18.1106 8.58128 18.2423 8.24982 18.2423C7.91836 18.2423 7.60047 18.1106 7.36606 17.8763L2.36599 12.8762C2.13165 12.6418 2 12.3239 2 11.9925C2 11.661 2.13165 11.3431 2.36599 11.1087L7.36606 6.10865C7.60181 5.88095 7.91757 5.75495 8.24532 5.7578C8.57307 5.76065 8.88659 5.89211 9.11835 6.12387C9.35011 6.35564 9.48158 6.66916 9.48443 6.99691C9.48727 7.32466 9.36128 7.64041 9.13358 7.87617L6.26729 10.7425H20.75C21.0815 10.7425 21.3995 10.8742 21.6339 11.1086C21.8683 11.343 22 11.6609 22 11.9925C22 12.324 21.8683 12.6419 21.6339 12.8764C21.3995 13.1108 21.0815 13.2425 20.75 13.2425H6.26729L9.13358 16.1088C9.36792 16.3432 9.49957 16.6611 9.49957 16.9925C9.49957 17.324 9.36792 17.6419 9.13358 17.8763Z" fill="black"/>
</svg>
