<svg width="25" height="23" viewBox="0 0 25 23" fill="none" xmlns="http://www.w3.org/2000/svg">
<path fill-rule="evenodd" clip-rule="evenodd" d="M11.9571 2.60321L11.5834 4.84622C12.1353 4.9465 12.6851 5.08715 13.2288 5.26921C13.673 5.41793 14.0059 5.7827 14.1249 6.22812L14.1451 6.30374L15.4561 6.52331L15.2248 7.90407L14.5423 7.78975L15.3874 10.9521C16.0998 10.9101 16.7965 11.045 17.454 11.3581C18.3595 11.7893 19.1506 12.5389 19.8089 13.5458L20.127 14.0322L18.9553 14.7984L18.6372 14.3119C18.0826 13.4637 17.4713 12.917 16.852 12.622C16.503 12.4559 16.1389 12.3633 15.7602 12.3471L16.5566 15.3268C16.597 15.4779 16.6062 15.636 16.5834 15.7911C16.5107 16.2861 16.4003 16.7701 16.2546 17.2393C18.4273 16.9055 20.3963 15.6376 21.6476 13.7217L23.1867 4.48468C20.1409 1.64778 15.7565 0.913539 11.9571 2.60321ZM15.659 18.7101C18.571 18.5297 21.2398 16.94 22.8525 14.4368C22.9374 14.305 22.9944 14.1571 23.0201 14.0028L24.5681 4.71193C24.6439 4.25726 24.4918 3.78772 24.1496 3.46839C20.6901 0.239638 15.6956 -0.597123 11.3765 1.32925C10.9487 1.52003 10.6525 1.91503 10.5767 2.36976L10.1921 4.67845C6.65067 4.46528 3.15494 5.87338 0.720076 8.62934C0.410274 8.98 0.303859 9.46192 0.422875 9.90725L2.7412 18.5819C2.77394 18.7044 2.82917 18.8202 2.90442 18.9231L3.13043 19.2321C4.96182 21.7357 7.89558 23.147 10.9365 22.967C11.1446 22.9546 11.3477 22.9 11.534 22.8065L11.609 22.7688C13.3737 21.8819 14.7784 20.4483 15.659 18.7101ZM1.77613 9.54851L4.07572 18.153L4.26039 18.4055C5.81936 20.5367 8.30205 21.7205 10.8537 21.5694C10.8717 21.5683 10.8891 21.5637 10.9053 21.5555L10.9803 21.5178C13.2258 20.3895 14.7981 18.2006 15.1907 15.6383L12.7733 6.5931C8.82966 5.27758 4.5359 6.43095 1.77613 9.54851ZM20.4792 8.78414L18.3772 8.43207L18.6084 7.0513L20.7105 7.40337L20.4792 8.78414ZM12.0875 11.6315L10.0296 12.1844L9.66641 10.8323L11.7243 10.2795L12.0875 11.6315ZM6.94178 13.0139L4.88389 13.5668L4.52066 12.2147L6.57856 11.6618L6.94178 13.0139ZM13.6291 15.4077L13.3592 15.9226C12.5776 17.4133 11.4858 18.4285 10.1404 18.7899C8.79472 19.1515 7.34232 18.8195 5.92145 17.92L5.43088 17.6094L6.17973 16.4265L6.6703 16.7371C7.86579 17.4939 8.91515 17.6695 9.77714 17.4379C10.6393 17.2063 11.4611 16.5278 12.1193 15.2725L12.3892 14.7576L13.6291 15.4077Z" fill="#B7BCCA"/>
</svg>
