<svg width="24" height="24" viewBox="0 0 24 24" fill="none" xmlns="http://www.w3.org/2000/svg">
<g clip-path="url(#clip0_1_845)">
<path fill-rule="evenodd" clip-rule="evenodd" d="M11.5821 2.60324L11.2084 4.84625C11.7603 4.94654 12.31 5.08718 12.8538 5.26924C13.298 5.41796 13.6309 5.78273 13.7499 6.22815L13.7701 6.30377L15.0811 6.52334L14.8498 7.9041L14.1672 7.78978L15.0124 10.9521C15.7248 10.9101 16.4215 11.045 17.079 11.3581C17.9845 11.7894 18.7756 12.539 19.4339 13.5458L19.752 14.0323L18.5802 14.7984L18.2622 14.3119C17.7075 13.4637 17.0963 12.917 16.477 12.6221C16.128 12.4559 15.7639 12.3633 15.3852 12.3471L16.1815 15.3268C16.2219 15.478 16.2312 15.6361 16.2084 15.7911C16.1357 16.2862 16.0253 16.7702 15.8796 17.2393C18.0523 16.9055 20.0212 15.6377 21.2726 13.7217L22.8116 4.48471C19.7659 1.64781 15.3815 0.91357 11.5821 2.60324ZM15.2839 18.7101C18.196 18.5297 20.8648 16.94 22.4775 14.4368C22.5624 14.305 22.6193 14.1572 22.645 14.0029L24.1931 4.71197C24.2688 4.25729 24.1167 3.78775 23.7746 3.46843C20.3151 0.239668 15.3206 -0.597092 11.0014 1.32928C10.5737 1.52006 10.2775 1.91506 10.2017 2.36979L9.81702 4.67848C6.27564 4.46531 2.77991 5.87341 0.345046 8.62937C0.0352438 8.98003 -0.071172 9.46195 0.0478448 9.90728L2.36617 18.5819C2.39891 18.7044 2.45414 18.8202 2.52939 18.9231L2.7554 19.2321C4.58679 21.7357 7.52055 23.147 10.5614 22.967C10.7695 22.9547 10.9727 22.9001 11.1589 22.8065L11.2339 22.7688C12.9987 21.882 14.4034 20.4483 15.2839 18.7101ZM1.4011 9.54854L3.70069 18.1531L3.88536 18.4055C5.44432 20.5367 7.92702 21.7205 10.4787 21.5694C10.4967 21.5684 10.5141 21.5637 10.5303 21.5556L10.6053 21.5179C12.8507 20.3895 14.4231 18.2007 14.8157 15.6383L12.3983 6.59313C8.45463 5.27761 4.16087 6.43098 1.4011 9.54854ZM20.1042 8.78417L18.0021 8.4321L18.2334 7.05133L20.3355 7.4034L20.1042 8.78417ZM11.7125 11.6316L9.65461 12.1844L9.29138 10.8324L11.3493 10.2795L11.7125 11.6316ZM6.56675 13.0139L4.50886 13.5668L4.14563 12.2147L6.20353 11.6619L6.56675 13.0139ZM13.2541 15.4077L12.9841 15.9226C12.2025 17.4133 11.1108 18.4285 9.76534 18.79C8.41969 19.1515 6.96729 18.8195 5.54641 17.92L5.05585 17.6094L5.8047 16.4265L6.29527 16.7371C7.49076 17.4939 8.54012 17.6695 9.40211 17.4379C10.2643 17.2063 11.086 16.5279 11.7442 15.2725L12.0142 14.7576L13.2541 15.4077Z" fill="black"/>
</g>
<defs>
<clipPath id="clip0_1_845">
<rect width="24" height="24" fill="white"/>
</clipPath>
</defs>
</svg>
