<svg width="24" height="24" viewBox="0 0 24 24" fill="none" xmlns="http://www.w3.org/2000/svg">
<path d="M22.9253 21.8358L2.28919 1.19991C2.09415 1.00471 1.80092 0.946297 1.54596 1.05204C1.29117 1.15762 1.125 1.4062 1.125 1.68214V22.318C1.125 22.6947 1.43031 23 1.80696 23H22.4431C22.7189 23 22.9676 22.8338 23.073 22.579C23.1786 22.3242 23.1204 22.0309 22.9253 21.8358ZM15.7201 21.6361V20.4982C15.7201 20.1216 15.4148 19.8163 15.0382 19.8163C14.6617 19.8163 14.3562 20.1216 14.3562 20.4982V21.6361H12.7722V20.9113C12.7722 20.5348 12.4669 20.2294 12.0903 20.2294C11.7136 20.2294 11.4083 20.5348 11.4083 20.9113V21.6361H9.82418V20.4982C9.82418 20.1216 9.51887 19.8163 9.14222 19.8163C8.76557 19.8163 8.46026 20.1216 8.46026 20.4982V21.6361H6.87628V20.9113C6.87628 20.5348 6.5708 20.2294 6.19432 20.2294C5.81767 20.2294 5.51219 20.5348 5.51219 20.9113V21.6361H2.48909V18.6128H3.21369C3.59034 18.6128 3.89565 18.3075 3.89565 17.9309C3.89565 17.5542 3.59034 17.2489 3.21369 17.2489H2.48909V15.6648H3.62676C4.00341 15.6648 4.30889 15.3595 4.30889 14.9828C4.30889 14.6062 4.00341 14.3008 3.62676 14.3008H2.48909V12.7169H3.21369C3.59034 12.7169 3.89565 12.4116 3.89565 12.0349C3.89565 11.6583 3.59034 11.353 3.21369 11.353H2.48909V9.76882H3.62676C4.00341 9.76882 4.30889 9.46351 4.30889 9.08686C4.30889 8.71021 4.00341 8.4049 3.62676 8.4049H2.48909V3.32854L20.7965 21.6361H15.7201Z" fill="black"/>
<path d="M6.16915 18.6129H12.36C12.6358 18.6129 12.8846 18.4467 12.99 18.1919C13.0955 17.9369 13.0373 17.6437 12.8421 17.4487L6.65138 11.2578C6.45634 11.0628 6.16294 11.0045 5.90815 11.1101C5.65336 11.2157 5.48719 11.4643 5.48719 11.74V17.9309C5.48719 18.3076 5.7925 18.6129 6.16915 18.6129ZM6.85112 13.3866L10.7135 17.2489H6.85112V13.3866Z" fill="black"/>
</svg>
