<svg width="22" height="22" viewBox="0 0 22 22" fill="none" xmlns="http://www.w3.org/2000/svg">
<path d="M21.8003 20.8358L1.16419 0.199914C0.96915 0.00470797 0.67592 -0.0537027 0.420961 0.0520407C0.166169 0.157616 0 0.406197 0 0.682137V21.318C0 21.6947 0.305314 22 0.681963 22H21.3181C21.5939 22 21.8426 21.8338 21.948 21.579C22.0536 21.3242 21.9954 21.0309 21.8003 20.8358ZM14.5951 20.6361V19.4982C14.5951 19.1216 14.2898 18.8163 13.9132 18.8163C13.5367 18.8163 13.2312 19.1216 13.2312 19.4982V20.6361H11.6472V19.9113C11.6472 19.5348 11.3419 19.2294 10.9653 19.2294C10.5886 19.2294 10.2833 19.5348 10.2833 19.9113V20.6361H8.69918V19.4982C8.69918 19.1216 8.39387 18.8163 8.01722 18.8163C7.64057 18.8163 7.33526 19.1216 7.33526 19.4982V20.6361H5.75128V19.9113C5.75128 19.5348 5.4458 19.2294 5.06932 19.2294C4.69267 19.2294 4.38719 19.5348 4.38719 19.9113V20.6361H1.36409V17.6128H2.08869C2.46534 17.6128 2.77065 17.3075 2.77065 16.9309C2.77065 16.5542 2.46534 16.2489 2.08869 16.2489H1.36409V14.6648H2.50176C2.87841 14.6648 3.18389 14.3595 3.18389 13.9828C3.18389 13.6062 2.87841 13.3008 2.50176 13.3008H1.36409V11.7169H2.08869C2.46534 11.7169 2.77065 11.4116 2.77065 11.0349C2.77065 10.6583 2.46534 10.353 2.08869 10.353H1.36409V8.76882H2.50176C2.87841 8.76882 3.18389 8.46351 3.18389 8.08686C3.18389 7.71021 2.87841 7.4049 2.50176 7.4049H1.36409V2.32854L19.6715 20.6361H14.5951Z" fill="#B7BCCA"/>
<path d="M5.04415 17.6129H11.235C11.5108 17.6129 11.7596 17.4467 11.865 17.1919C11.9705 16.9369 11.9123 16.6437 11.7171 16.4487L5.52638 10.2578C5.33134 10.0628 5.03794 10.0045 4.78315 10.1101C4.52836 10.2157 4.36219 10.4643 4.36219 10.74V16.9309C4.36219 17.3076 4.6675 17.6129 5.04415 17.6129ZM5.72612 12.3866L9.58846 16.2489H5.72612V12.3866Z" fill="#B7BCCA"/>
</svg>
