<svg width="19" height="22" viewBox="0 0 19 22" fill="none" xmlns="http://www.w3.org/2000/svg">
<path fill-rule="evenodd" clip-rule="evenodd" d="M7.95443 0.0571863C5.23203 0.462986 2.90843 2.04204 1.44742 4.4792C1.19063 4.90756 0.740678 5.93495 0.570065 6.48258C0.0469739 8.16119 -0.0145856 9.81979 0.383089 11.5176C1.34347 15.6178 4.83384 20.4303 7.76567 21.6967C8.72568 22.1114 9.58878 22.1012 10.5673 21.6636C13.219 20.4777 16.3853 16.3226 17.6117 12.4192C18.0905 10.8953 18.2244 9.63769 18.0548 8.25505C17.7949 6.13598 16.9174 4.26012 15.4811 2.75408C14.1245 1.33152 12.543 0.472377 10.601 0.103007C9.99916 -0.0114468 8.57987 -0.0360287 7.95443 0.0571863ZM9.86277 1.60359C12.4313 1.88732 14.6079 3.44528 15.782 5.84045C16.2376 6.7698 16.4796 7.63833 16.5855 8.72368C16.7795 10.7134 15.9773 13.2132 14.3031 15.8361C13.6597 16.844 13.1366 17.511 12.3157 18.3702C11.459 19.2668 10.9345 19.6917 10.2259 20.0631C9.58822 20.3973 9.24577 20.478 8.83108 20.3916C8.43293 20.3086 7.59773 19.8651 7.08463 19.4641C6.54072 19.039 5.31769 17.7585 4.79343 17.0652C2.97234 14.6569 1.77078 11.8639 1.64147 9.73833C1.5161 7.67786 2.36237 5.40919 3.83075 3.86947C5.4138 2.20939 7.67111 1.36146 9.86277 1.60359ZM4.16245 7.91655C3.70758 8.07289 3.31881 8.49271 3.18632 8.97063C3.09152 9.31271 3.12274 10.3772 3.24066 10.8214C3.53275 11.9216 4.30034 12.8875 5.25613 13.3575C5.81781 13.6337 6.16016 13.7163 6.75644 13.7194C7.21183 13.7217 7.29945 13.708 7.50537 13.6017C7.80281 13.4482 8.08941 13.1477 8.23574 12.8358C8.34231 12.6088 8.35042 12.5385 8.34906 11.8538C8.34746 11.0269 8.29186 10.7357 8.01594 10.1089C7.5711 9.09816 6.62793 8.26916 5.58432 7.97162C5.18623 7.8581 4.41896 7.8284 4.16245 7.91655ZM12.8514 7.92584C11.3644 8.27152 10.2455 9.46719 9.94342 11.0335C9.82592 11.6425 9.8593 12.5064 10.0131 12.8358C10.1585 13.1473 10.445 13.448 10.7428 13.6017C10.9488 13.708 11.0364 13.7217 11.4918 13.7194C12.0951 13.7162 12.4417 13.6318 12.9957 13.3528C13.7614 12.9672 14.382 12.3163 14.7497 11.5135C15.0408 10.878 15.0988 10.5846 15.1004 9.73975C15.1018 9.05505 15.0937 8.98479 14.9871 8.75775C14.8402 8.44462 14.5531 8.14428 14.2567 7.99369C13.9597 7.84276 13.3379 7.81272 12.8514 7.92584ZM5.12809 9.49433C6.15528 9.74826 6.86165 10.6996 6.87093 11.8415C6.87365 12.1721 6.87318 12.1734 6.74472 12.1705C6.49515 12.1651 5.99578 11.9969 5.73299 11.8299C5.03516 11.3865 4.62319 10.6024 4.62319 9.71778C4.62319 9.37235 4.62736 9.37053 5.12809 9.49433ZM13.6223 9.75204C13.613 10.894 12.9067 11.8453 11.8795 12.0992C11.3787 12.223 11.3746 12.2212 11.3746 11.8758C11.3746 10.9912 11.7865 10.2071 12.4844 9.76365C12.7472 9.59664 13.2465 9.42849 13.4961 9.42304C13.6246 9.42019 13.625 9.42142 13.6223 9.75204ZM7.31671 15.7814C7.00605 15.9253 6.82775 16.3015 6.89418 16.6729C6.93525 16.9025 7.16916 17.1742 7.38202 17.2396C7.49421 17.274 8.13175 17.287 9.22622 17.277C10.8307 17.2625 10.9043 17.2577 11.0284 17.1605C11.2744 16.9678 11.3511 16.8107 11.3511 16.4998C11.3511 16.1889 11.2744 16.0318 11.0284 15.8391C10.9038 15.7416 10.8342 15.7373 9.17934 15.7265C7.82109 15.7176 7.42965 15.7291 7.31671 15.7814Z" fill="#B7BCCA"/>
</svg>
