<svg width="24" height="24" viewBox="0 0 24 24" fill="none" xmlns="http://www.w3.org/2000/svg">
<path fill-rule="evenodd" clip-rule="evenodd" d="M10.8294 1.05719C8.10703 1.46299 5.78343 3.04204 4.32242 5.4792C4.06563 5.90756 3.61568 6.93495 3.44507 7.48258C2.92197 9.16119 2.86041 10.8198 3.25809 12.5176C4.21847 16.6178 7.70884 21.4303 10.6407 22.6967C11.6007 23.1114 12.4638 23.1012 13.4423 22.6636C16.094 21.4777 19.2603 17.3226 20.4867 13.4192C20.9655 11.8953 21.0994 10.6377 20.9298 9.25505C20.6699 7.13598 19.7924 5.26012 18.3561 3.75408C16.9995 2.33152 15.418 1.47238 13.476 1.10301C12.8742 0.988553 11.4549 0.963971 10.8294 1.05719ZM12.7378 2.60359C15.3063 2.88732 17.4829 4.44528 18.657 6.84045C19.1126 7.7698 19.3546 8.63833 19.4605 9.72368C19.6545 11.7134 18.8523 14.2132 17.1781 16.8361C16.5347 17.844 16.0116 18.511 15.1907 19.3702C14.334 20.2668 13.8095 20.6917 13.1009 21.0631C12.4632 21.3973 12.1208 21.478 11.7061 21.3916C11.3079 21.3086 10.4727 20.8651 9.95963 20.4641C9.41572 20.039 8.19269 18.7585 7.66843 18.0652C5.84734 15.6569 4.64578 12.8639 4.51647 10.7383C4.3911 8.67786 5.23737 6.40919 6.70575 4.86947C8.2888 3.20939 10.5461 2.36146 12.7378 2.60359ZM7.03745 8.91655C6.58258 9.07289 6.19381 9.49271 6.06132 9.97063C5.96652 10.3127 5.99774 11.3772 6.11566 11.8214C6.40775 12.9216 7.17534 13.8875 8.13113 14.3575C8.69281 14.6337 9.03516 14.7163 9.63144 14.7194C10.0868 14.7217 10.1745 14.708 10.3804 14.6017C10.6778 14.4482 10.9644 14.1477 11.1107 13.8358C11.2173 13.6088 11.2254 13.5385 11.2241 12.8538C11.2225 12.0269 11.1669 11.7357 10.8909 11.1089C10.4461 10.0982 9.50293 9.26916 8.45932 8.97162C8.06123 8.8581 7.29396 8.8284 7.03745 8.91655ZM15.7264 8.92584C14.2394 9.27152 13.1205 10.4672 12.8184 12.0335C12.7009 12.6425 12.7343 13.5064 12.8881 13.8358C13.0335 14.1473 13.32 14.448 13.6178 14.6017C13.8238 14.708 13.9114 14.7217 14.3668 14.7194C14.9701 14.7162 15.3167 14.6318 15.8707 14.3528C16.6364 13.9672 17.257 13.3163 17.6247 12.5135C17.9158 11.878 17.9738 11.5846 17.9754 10.7398C17.9768 10.055 17.9687 9.98479 17.8621 9.75775C17.7152 9.44462 17.4281 9.14428 17.1317 8.99369C16.8347 8.84276 16.2129 8.81272 15.7264 8.92584ZM8.00309 10.4943C9.03028 10.7483 9.73665 11.6996 9.74593 12.8415C9.74865 13.1721 9.74818 13.1734 9.61972 13.1705C9.37015 13.1651 8.87078 12.9969 8.60799 12.8299C7.91016 12.3865 7.49819 11.6024 7.49819 10.7178C7.49819 10.3723 7.50236 10.3705 8.00309 10.4943ZM16.4973 10.752C16.488 11.894 15.7817 12.8453 14.7545 13.0992C14.2537 13.223 14.2496 13.2212 14.2496 12.8758C14.2496 11.9912 14.6615 11.2071 15.3594 10.7636C15.6222 10.5966 16.1215 10.4285 16.3711 10.423C16.4996 10.4202 16.5 10.4214 16.4973 10.752ZM10.1917 16.7814C9.88105 16.9253 9.70275 17.3015 9.76918 17.6729C9.81025 17.9025 10.0442 18.1742 10.257 18.2396C10.3692 18.274 11.0067 18.287 12.1012 18.277C13.7057 18.2625 13.7793 18.2577 13.9034 18.1605C14.1494 17.9678 14.2261 17.8107 14.2261 17.4998C14.2261 17.1889 14.1494 17.0318 13.9034 16.8391C13.7788 16.7416 13.7092 16.7373 12.0543 16.7265C10.6961 16.7176 10.3047 16.7291 10.1917 16.7814Z" fill="black"/>
</svg>
