<svg width="24" height="24" viewBox="0 0 24 24" fill="none" xmlns="http://www.w3.org/2000/svg">
<path d="M16.886 9.15117L17.8829 7.20409C18.5507 5.89964 18.5043 4.30584 17.7617 3.04467C17.019 1.78349 15.6657 1 14.2298 1H9.52028C8.08432 1 6.73093 1.78349 5.98831 3.04463C5.24573 4.3058 5.19929 5.8996 5.86713 7.20404L6.86405 9.15117C4.75041 10.7395 3.375 13.3038 3.375 16.192C3.375 18.3229 4.13219 20.3746 5.50719 21.9691C6.0721 22.6243 6.88536 23 7.73828 23H16.0117C16.8647 23 17.6779 22.6243 18.2428 21.9691C19.6178 20.3746 20.375 18.3229 20.375 16.192C20.375 13.3038 18.9995 10.7395 16.886 9.15117ZM7.18463 3.78639C7.67572 2.95233 8.57072 2.43425 9.52028 2.43425H14.2297C15.1793 2.43425 16.0743 2.95233 16.5654 3.78639C17.0565 4.62046 17.0872 5.67444 16.6456 6.53708L15.6931 8.39741C15.2447 8.16534 14.7791 7.97572 14.2991 7.82954L15.1641 6.14005C15.3982 5.68269 15.3819 5.12384 15.1215 4.68169C14.8612 4.23946 14.3867 3.96476 13.8831 3.96476H9.86674C9.36325 3.96476 8.8887 4.23946 8.62829 4.68169C8.36797 5.12393 8.35164 5.68269 8.58579 6.14014L9.45081 7.82958C8.97078 7.97576 8.50514 8.16543 8.05681 8.39746L7.10432 6.53713C6.66285 5.67436 6.69354 4.62037 7.18463 3.78639ZM13.9269 5.473L12.8736 7.53018C12.546 7.49064 12.2129 7.46972 11.8751 7.46972C11.5373 7.46972 11.2043 7.49069 10.8766 7.53018L9.82327 5.47305C9.81532 5.45745 9.81582 5.43837 9.82474 5.42333C9.83357 5.40829 9.84974 5.39897 9.8669 5.39897H13.8833C13.9004 5.39897 13.9165 5.40829 13.9254 5.42333C13.9343 5.43837 13.9348 5.45745 13.9269 5.473ZM17.1961 21.0187C16.8963 21.3664 16.4646 21.5658 16.0117 21.5658H7.73832C7.28542 21.5658 6.85375 21.3664 6.55398 21.0187C5.40531 19.6866 4.77273 17.9724 4.77273 16.192C4.77273 12.1733 7.95882 8.90393 11.875 8.90393C15.7912 8.90393 18.9773 12.1734 18.9773 16.192C18.9773 17.9724 18.3447 19.6866 17.1961 21.0187Z" fill="black"/>
</svg>
