<svg width="17" height="22" viewBox="0 0 17 22" fill="none" xmlns="http://www.w3.org/2000/svg">
<path d="M13.511 8.15117L14.5079 6.20409C15.1757 4.89964 15.1293 3.30584 14.3867 2.04467C13.644 0.783492 12.2907 0 10.8548 0H6.14528C4.70932 0 3.35593 0.783492 2.61331 2.04463C1.87073 3.3058 1.82429 4.8996 2.49213 6.20404L3.48905 8.15117C1.37541 9.73951 0 12.3038 0 15.192C0 17.3229 0.757194 19.3746 2.13219 20.9691C2.6971 21.6243 3.51036 22 4.36328 22H12.6367C13.4897 22 14.3029 21.6243 14.8678 20.9691C16.2428 19.3746 17 17.3229 17 15.192C17 12.3038 15.6245 9.73947 13.511 8.15117ZM3.80963 2.78639C4.30072 1.95233 5.19572 1.43425 6.14528 1.43425H10.8547C11.8043 1.43425 12.6993 1.95233 13.1904 2.78639C13.6815 3.62046 13.7122 4.67444 13.2706 5.53708L12.3181 7.39741C11.8697 7.16534 11.4041 6.97572 10.9241 6.82954L11.7891 5.14005C12.0232 4.68269 12.0069 4.12384 11.7465 3.68169C11.4862 3.23946 11.0117 2.96476 10.5081 2.96476H6.49174C5.98825 2.96476 5.5137 3.23946 5.25329 3.68169C4.99297 4.12393 4.97664 4.68269 5.21079 5.14014L6.07581 6.82958C5.59578 6.97576 5.13014 7.16543 4.68181 7.39746L3.72932 5.53713C3.28785 4.67436 3.31854 3.62037 3.80963 2.78639ZM10.5519 4.473L9.49857 6.53018C9.17096 6.49064 8.8379 6.46972 8.50015 6.46972C8.16231 6.46972 7.82925 6.49069 7.50164 6.53018L6.44827 4.47305C6.44032 4.45745 6.44082 4.43837 6.44974 4.42333C6.45857 4.40829 6.47474 4.39897 6.4919 4.39897H10.5083C10.5254 4.39897 10.5415 4.40829 10.5504 4.42333C10.5593 4.43837 10.5598 4.45745 10.5519 4.473ZM13.8211 20.0187C13.5213 20.3664 13.0896 20.5658 12.6367 20.5658H4.36332C3.91042 20.5658 3.47875 20.3664 3.17898 20.0187C2.03031 18.6866 1.39773 16.9724 1.39773 15.192C1.39773 11.1733 4.58382 7.90393 8.50002 7.90393C12.4162 7.90393 15.6023 11.1734 15.6023 15.192C15.6023 16.9724 14.9697 18.6866 13.8211 20.0187Z" fill="#B7BCCA"/>
</svg>
