<svg width="18" height="22" viewBox="0 0 18 22" fill="none" xmlns="http://www.w3.org/2000/svg">
<path fill-rule="evenodd" clip-rule="evenodd" d="M7.82943 0.0571863C5.10703 0.462986 2.78343 2.04204 1.32242 4.4792C1.06563 4.90756 0.615678 5.93495 0.445065 6.48258C-0.0780261 8.16119 -0.139586 9.81979 0.258089 11.5176C1.21847 15.6178 4.70884 20.4303 7.64067 21.6967C8.60068 22.1114 9.46378 22.1012 10.4423 21.6636C13.094 20.4777 16.2603 16.3226 17.4867 12.4192C17.9655 10.8953 18.0994 9.63769 17.9298 8.25505C17.6699 6.13598 16.7924 4.26012 15.3561 2.75408C13.9995 1.33152 12.418 0.472377 10.476 0.103007C9.87416 -0.0114468 8.45487 -0.0360287 7.82943 0.0571863ZM9.73777 1.60359C12.3063 1.88732 14.4829 3.44528 15.657 5.84045C16.1126 6.7698 16.3546 7.63833 16.4605 8.72368C16.6545 10.7134 15.8523 13.2132 14.1781 15.8361C13.5347 16.844 13.0116 17.511 12.1907 18.3702C11.334 19.2668 10.8095 19.6917 10.1009 20.0631C9.46322 20.3973 9.12077 20.478 8.70608 20.3916C8.30793 20.3086 7.47273 19.8651 6.95963 19.4641C6.41572 19.039 5.19269 17.7585 4.66843 17.0652C2.84734 14.6569 1.64578 11.8639 1.51647 9.73833C1.3911 7.67786 2.23737 5.40919 3.70575 3.86947C5.2888 2.20939 7.54611 1.36146 9.73777 1.60359ZM4.03745 7.91655C3.58258 8.07289 3.19381 8.49271 3.06132 8.97063C2.96652 9.31271 2.99774 10.3772 3.11566 10.8214C3.40775 11.9216 4.17534 12.8875 5.13113 13.3575C5.69281 13.6337 6.03516 13.7163 6.63144 13.7194C7.08683 13.7217 7.17445 13.708 7.38037 13.6017C7.67781 13.4482 7.96441 13.1477 8.11074 12.8358C8.21731 12.6088 8.22542 12.5385 8.22406 11.8538C8.22246 11.0269 8.16686 10.7357 7.89094 10.1089C7.4461 9.09816 6.50293 8.26916 5.45932 7.97162C5.06123 7.8581 4.29396 7.8284 4.03745 7.91655ZM12.7264 7.92584C11.2394 8.27152 10.1205 9.46719 9.81842 11.0335C9.70092 11.6425 9.7343 12.5064 9.88809 12.8358C10.0335 13.1473 10.32 13.448 10.6178 13.6017C10.8238 13.708 10.9114 13.7217 11.3668 13.7194C11.9701 13.7162 12.3167 13.6318 12.8707 13.3528C13.6364 12.9672 14.257 12.3163 14.6247 11.5135C14.9158 10.878 14.9738 10.5846 14.9754 9.73975C14.9768 9.05505 14.9687 8.98479 14.8621 8.75775C14.7152 8.44462 14.4281 8.14428 14.1317 7.99369C13.8347 7.84276 13.2129 7.81272 12.7264 7.92584ZM5.00309 9.49433C6.03028 9.74826 6.73665 10.6996 6.74593 11.8415C6.74865 12.1721 6.74818 12.1734 6.61972 12.1705C6.37015 12.1651 5.87078 11.9969 5.60799 11.8299C4.91016 11.3865 4.49819 10.6024 4.49819 9.71778C4.49819 9.37235 4.50236 9.37053 5.00309 9.49433ZM13.4973 9.75204C13.488 10.894 12.7817 11.8453 11.7545 12.0992C11.2537 12.223 11.2496 12.2212 11.2496 11.8758C11.2496 10.9912 11.6615 10.2071 12.3594 9.76365C12.6222 9.59664 13.1215 9.42849 13.3711 9.42304C13.4996 9.42019 13.5 9.42142 13.4973 9.75204ZM7.19171 15.7814C6.88105 15.9253 6.70275 16.3015 6.76918 16.6729C6.81025 16.9025 7.04416 17.1742 7.25702 17.2396C7.36921 17.274 8.00675 17.287 9.10122 17.277C10.7057 17.2625 10.7793 17.2577 10.9034 17.1605C11.1494 16.9678 11.2261 16.8107 11.2261 16.4998C11.2261 16.1889 11.1494 16.0318 10.9034 15.8391C10.7788 15.7416 10.7092 15.7373 9.05434 15.7265C7.69609 15.7176 7.30465 15.7291 7.19171 15.7814Z" fill="#000"/>
</svg>
