<svg width="20" height="14" viewBox="0 0 20 14" fill="none" xmlns="http://www.w3.org/2000/svg">
<path fill-rule="evenodd" clip-rule="evenodd" d="M7.13358 12.8763C6.89917 13.1106 6.58128 13.2423 6.24982 13.2423C5.91836 13.2423 5.60047 13.1106 5.36606 12.8763L0.365988 7.87624C0.131646 7.64182 0 7.32393 0 6.99247C0 6.66102 0.131646 6.34313 0.365988 6.10871L5.36606 1.10865C5.60181 0.880946 5.91757 0.754951 6.24532 0.757799C6.57307 0.760647 6.88659 0.89211 7.11835 1.12387C7.35011 1.35564 7.48158 1.66916 7.48443 1.99691C7.48727 2.32466 7.36128 2.64041 7.13358 2.87617L4.26729 5.74246H18.75C19.0815 5.74246 19.3995 5.87416 19.6339 6.10858C19.8683 6.343 20 6.66095 20 6.99247C20 7.324 19.8683 7.64195 19.6339 7.87637C19.3995 8.11079 19.0815 8.24249 18.75 8.24249H4.26729L7.13358 11.1088C7.36792 11.3432 7.49957 11.6611 7.49957 11.9925C7.49957 12.324 7.36792 12.6419 7.13358 12.8763Z" fill="#FFF"/>
</svg>
