<svg width="16" height="16" viewBox="0 0 16 16" fill="none" xmlns="http://www.w3.org/2000/svg">
<path fill-rule="evenodd" clip-rule="evenodd" d="M16 8C16 12.4184 12.4181 16 8.00022 16C3.58193 16 0 12.4184 0 8C0 3.58159 3.58193 0 8.00022 0C12.4181 0 16 3.58159 16 8" fill="#B7BCCA"/>
<path fill-rule="evenodd" clip-rule="evenodd" d="M8.84302 8.00014L11.4115 5.43208C11.6444 5.19914 11.6444 4.82146 11.4115 4.58852C11.1785 4.35558 10.8009 4.35558 10.5684 4.58852L7.99996 7.15706L5.43151 4.58852C5.19858 4.35558 4.82138 4.35558 4.58845 4.58852C4.35552 4.82146 4.35552 5.19914 4.58845 5.43208L7.15691 8.00014L4.58845 10.5687C4.35552 10.8016 4.35552 11.1788 4.58845 11.4118C4.70492 11.5282 4.85781 11.5862 5.01022 11.5862C5.16263 11.5862 5.31504 11.5282 5.43151 11.4118L7.99996 8.84323L10.5684 11.4118C10.6849 11.5282 10.8373 11.5862 10.9897 11.5862C11.1421 11.5862 11.295 11.5282 11.4115 11.4118C11.6444 11.1788 11.6444 10.8016 11.4115 10.5687L8.84302 8.00014Z" fill="#F8F9FB"/>
</svg>
