<svg width="23" height="22" viewBox="0 0 23 22" fill="none" xmlns="http://www.w3.org/2000/svg">
<path d="M21.9253 20.8358L1.28919 0.199914C1.09415 0.00470797 0.80092 -0.0537027 0.545961 0.0520407C0.291169 0.157616 0.125 0.406197 0.125 0.682137V21.318C0.125 21.6947 0.430314 22 0.806963 22H21.4431C21.7189 22 21.9676 21.8338 22.073 21.579C22.1786 21.3242 22.1204 21.0309 21.9253 20.8358ZM14.7201 20.6361V19.4982C14.7201 19.1216 14.4148 18.8163 14.0382 18.8163C13.6617 18.8163 13.3562 19.1216 13.3562 19.4982V20.6361H11.7722V19.9113C11.7722 19.5348 11.4669 19.2294 11.0903 19.2294C10.7136 19.2294 10.4083 19.5348 10.4083 19.9113V20.6361H8.82418V19.4982C8.82418 19.1216 8.51887 18.8163 8.14222 18.8163C7.76557 18.8163 7.46026 19.1216 7.46026 19.4982V20.6361H5.87628V19.9113C5.87628 19.5348 5.5708 19.2294 5.19432 19.2294C4.81767 19.2294 4.51219 19.5348 4.51219 19.9113V20.6361H1.48909V17.6128H2.21369C2.59034 17.6128 2.89565 17.3075 2.89565 16.9309C2.89565 16.5542 2.59034 16.2489 2.21369 16.2489H1.48909V14.6648H2.62676C3.00341 14.6648 3.30889 14.3595 3.30889 13.9828C3.30889 13.6062 3.00341 13.3008 2.62676 13.3008H1.48909V11.7169H2.21369C2.59034 11.7169 2.89565 11.4116 2.89565 11.0349C2.89565 10.6583 2.59034 10.353 2.21369 10.353H1.48909V8.76882H2.62676C3.00341 8.76882 3.30889 8.46351 3.30889 8.08686C3.30889 7.71021 3.00341 7.4049 2.62676 7.4049H1.48909V2.32854L19.7965 20.6361H14.7201Z" fill="black"/>
<path d="M5.16915 17.6129H11.36C11.6358 17.6129 11.8846 17.4467 11.99 17.1919C12.0955 16.9369 12.0373 16.6437 11.8421 16.4487L5.65138 10.2578C5.45634 10.0628 5.16294 10.0045 4.90815 10.1101C4.65336 10.2157 4.48719 10.4643 4.48719 10.74V16.9309C4.48719 17.3076 4.7925 17.6129 5.16915 17.6129ZM5.85112 12.3866L9.71346 16.2489H5.85112V12.3866Z" fill="black"/>
</svg>
