<svg width="18" height="22" viewBox="0 0 18 22" fill="none" xmlns="http://www.w3.org/2000/svg">
<path d="M13.886 8.15117L14.8829 6.20409C15.5507 4.89964 15.5043 3.30584 14.7617 2.04467C14.019 0.783492 12.6657 0 11.2298 0H6.52028C5.08432 0 3.73093 0.783492 2.98831 2.04463C2.24573 3.3058 2.19929 4.8996 2.86713 6.20404L3.86405 8.15117C1.75041 9.73951 0.375 12.3038 0.375 15.192C0.375 17.3229 1.13219 19.3746 2.50719 20.9691C3.0721 21.6243 3.88536 22 4.73828 22H13.0117C13.8647 22 14.6779 21.6243 15.2428 20.9691C16.6178 19.3746 17.375 17.3229 17.375 15.192C17.375 12.3038 15.9995 9.73947 13.886 8.15117ZM4.18463 2.78639C4.67572 1.95233 5.57072 1.43425 6.52028 1.43425H11.2297C12.1793 1.43425 13.0743 1.95233 13.5654 2.78639C14.0565 3.62046 14.0872 4.67444 13.6456 5.53708L12.6931 7.39741C12.2447 7.16534 11.7791 6.97572 11.2991 6.82954L12.1641 5.14005C12.3982 4.68269 12.3819 4.12384 12.1215 3.68169C11.8612 3.23946 11.3867 2.96476 10.8831 2.96476H6.86674C6.36325 2.96476 5.8887 3.23946 5.62829 3.68169C5.36797 4.12393 5.35164 4.68269 5.58579 5.14014L6.45081 6.82958C5.97078 6.97576 5.50514 7.16543 5.05681 7.39746L4.10432 5.53713C3.66285 4.67436 3.69354 3.62037 4.18463 2.78639ZM10.9269 4.473L9.87357 6.53018C9.54596 6.49064 9.2129 6.46972 8.87515 6.46972C8.53731 6.46972 8.20425 6.49069 7.87664 6.53018L6.82327 4.47305C6.81532 4.45745 6.81582 4.43837 6.82474 4.42333C6.83357 4.40829 6.84974 4.39897 6.8669 4.39897H10.8833C10.9004 4.39897 10.9165 4.40829 10.9254 4.42333C10.9343 4.43837 10.9348 4.45745 10.9269 4.473ZM14.1961 20.0187C13.8963 20.3664 13.4646 20.5658 13.0117 20.5658H4.73832C4.28542 20.5658 3.85375 20.3664 3.55398 20.0187C2.40531 18.6866 1.77273 16.9724 1.77273 15.192C1.77273 11.1733 4.95882 7.90393 8.87502 7.90393C12.7912 7.90393 15.9773 11.1734 15.9773 15.192C15.9773 16.9724 15.3447 18.6866 14.1961 20.0187Z" fill="black"/>
</svg>
